<svg xmlns="http://www.w3.org/2000/svg" viewBox="0 0 1200 675" role="img" aria-labelledby="title desc">
  <title id="title">Domain ServerHold Visual</title>
  <desc id="desc">Domain status dashboard showing a paused DNS route and registry review.</desc>
  <defs>
    <linearGradient id="bg" x1="0" y1="0" x2="1" y2="1">
      <stop offset="0" stop-color="#f7fbff"/>
      <stop offset="1" stop-color="#e8f6f2"/>
    </linearGradient>
    <linearGradient id="panel" x1="0" y1="0" x2="1" y2="1">
      <stop offset="0" stop-color="#ffffff"/>
      <stop offset="1" stop-color="#f1f7fb"/>
    </linearGradient>
  </defs>
  <rect width="1200" height="675" fill="url(#bg)"/>
  <rect x="92" y="82" width="1016" height="510" rx="32" fill="url(#panel)" stroke="#cfe0ef" stroke-width="3"/>
  <rect x="142" y="142" width="916" height="86" rx="20" fill="#103a2b"/>
  <circle cx="188" cy="185" r="13" fill="#ffcf5a"/>
  <circle cx="232" cy="185" r="13" fill="#ff7a6b"/>
  <circle cx="276" cy="185" r="13" fill="#12c7b7"/>
  <text x="330" y="194" font-family="Inter, Arial, sans-serif" font-size="30" font-weight="800" fill="#ffffff">Registry status monitor</text>
  <rect x="152" y="280" width="280" height="202" rx="24" fill="#ffffff" stroke="#d7e1f1" stroke-width="3"/>
  <text x="192" y="342" font-family="Inter, Arial, sans-serif" font-size="28" font-weight="800" fill="#031b4e">allcontent.in</text>
  <text x="192" y="386" font-family="Inter, Arial, sans-serif" font-size="20" font-weight="700" fill="#5c6f97">DNS route paused</text>
  <rect x="192" y="420" width="158" height="40" rx="20" fill="#ffe8e5"/>
  <text x="220" y="447" font-family="Inter, Arial, sans-serif" font-size="17" font-weight="800" fill="#b33627">SERVERHOLD</text>
  <path d="M474 382h170" stroke="#8ba4bf" stroke-width="10" stroke-linecap="round" stroke-dasharray="2 24"/>
  <circle cx="560" cy="382" r="44" fill="#fff7df" stroke="#ffcf5a" stroke-width="8"/>
  <path d="M543 359v46M577 359v46" stroke="#d89400" stroke-width="10" stroke-linecap="round"/>
  <path d="M686 382h170" stroke="#8ba4bf" stroke-width="10" stroke-linecap="round" stroke-dasharray="2 24"/>
  <rect x="886" y="280" width="164" height="202" rx="24" fill="#ffffff" stroke="#d7e1f1" stroke-width="3"/>
  <path d="M968 328l52 32v62c0 38-22 70-52 84-30-14-52-46-52-84v-62l52-32z" fill="#e8f6f2" stroke="#12c7b7" stroke-width="8" stroke-linejoin="round"/>
  <path d="M946 416l18 18 34-44" fill="none" stroke="#103a2b" stroke-width="10" stroke-linecap="round" stroke-linejoin="round"/>
  <text x="906" y="530" font-family="Inter, Arial, sans-serif" font-size="20" font-weight="800" fill="#031b4e">Registry review</text>
</svg>
